# xmcd CD Database Entry
#
# Track frame offsets:
# 150
# 34515
# 71147
# 90975
# 131605
# 160977
# 197662
#
# Disc length: 3270 seconds
#
# Revision: 2
# Processed by: cddbd v1.4PL0 Copyright (c) Steve Scherf et al.
# Submitted via: tcd 2.0b
#
DISCID=560cc407
DTITLE=Claude Debussy - Iberia * La Mer * Prelude
DYEAR=1900
DGENRE=
TTITLE0=par les rues et par les chemins
TTITLE1=Les parfums de la nuit
TTITLE2=Le matin d'un jour de fete
TTITLE3=De Paube a midi sur la mer
TTITLE4=Jeux de vagues
TTITLE5=Dialogue du vent et de la mer
TTITLE6=Prelude a l'apres-midi d'un faune
EXTD=
EXTT0=Iberia
EXTT1=Iberia
EXTT2=Iberia
EXTT3=La Mer
EXTT4=La Mer
EXTT5=La Mer
EXTT6=
PLAYORDER=
